Coordinates
version=1
nRows=30
nColumns=38
inDegrees=no

Units are S.I. units (second, meters, Newtons, ...)
If the header above contains a line with 'inDegrees', this indicates whether rotational values are in degrees (yes) or radians (no).

endheader
time	pelvis_tilt	pelvis_list	pelvis_rotation	pelvis_tx	pelvis_ty	pelvis_tz	hip_flexion_r	hip_adduction_r	hip_rotation_r	knee_angle_r	ankle_angle_r	subtalar_angle_r	mtp_angle_r	hip_flexion_l	hip_adduction_l	hip_rotation_l	knee_angle_l	ankle_angle_l	subtalar_angle_l	mtp_angle_l	lumbar_extension	lumbar_bending	lumbar_rotation	arm_flex_r	arm_add_r	arm_rot_r	elbow_flex_r	pro_sup_r	wrist_flex_r	wrist_dev_r	arm_flex_l	arm_add_l	arm_rot_l	elbow_flex_l	pro_sup_l	wrist_flex_l	wrist_dev_l
95	-1.30137	1.45509	-0.375387	0.839803	-0.225309	0.903463	-0.290493	-0.00504558	0.068708	0.472378	-0.313101	0	0	0.308328	-0.344781	-0.395425	0.421244	-0.243937	0	0	-0.112342	0.140618	-0.0973678	-0.551998	-0.569158	0.0861512	1.91776	1.5708	0	0	0.151009	-0.221743	0.514097	0.522356	1.5708	0	0
95.01	-1.31652	1.4569	-0.354648	0.84529	-0.232671	0.904528	-0.280684	-0.010805	0.0626453	0.49665	-0.329902	0	0	0.298905	-0.336976	-0.36533	0.407475	-0.248465	0	0	-0.110809	0.143024	-0.11319	-0.571357	-0.590975	0.0852791	1.92574	1.5708	0	0	0.150314	-0.218094	0.514476	0.521622	1.5708	0	0
95.02	-1.30627	1.46411	-0.362861	0.85074	-0.240143	0.906084	-0.268201	-0.0255619	0.0525627	0.52627	-0.347287	0	0	0.302783	-0.324052	-0.399251	0.435012	-0.246059	0	0	-0.110263	0.138567	-0.126245	-0.58873	-0.605861	0.0846711	1.92719	1.5708	0	0	0.149433	-0.214406	0.514129	0.519518	1.5708	0	0
95.03	-1.78575	1.416	0.111259	0.849827	-0.247402	0.899114	-0.188363	0.0450046	0.10633	0.579913	-0.344771	0	0	0.393925	-0.454647	-0.608054	0.551236	-0.264774	0	0	-0.0415286	0.196161	-0.129187	-0.634069	-0.629729	0.0695461	1.9486	1.5708	0	0	0.133572	-0.212762	0.520191	0.530576	1.5708	0	0
95.04	-1.30743	1.47763	-0.364945	0.860384	-0.25495	0.909247	-0.233658	-0.0536543	0.0423072	0.598068	-0.386426	0	0	0.284133	-0.298206	-0.41136	0.428173	-0.249893	0	0	-0.10779	0.130387	-0.141045	-0.634894	-0.636872	0.0707951	1.93898	1.5708	0	0	0.150329	-0.206126	0.519924	0.51218	1.5708	0	0
95.05	-0.517867	1.47269	-1.15772	0.862269	-0.258504	0.922578	-0.283112	-0.104832	0.0397323	0.608633	-0.439295	0	0	0.166295	-0.235508	-0.467039	0.324514	-0.337905	0	0	-0.188632	0.0690674	-0.150048	-0.612948	-0.615973	0.0909179	1.90597	1.5708	0	0	0.170035	-0.220717	0.521244	0.505152	1.5708	0	0
95.06	-0.443019	1.46975	-1.23596	0.866638	-0.265076	0.925122	-0.270399	-0.117522	0.038869	0.645844	-0.465951	0	0	0.135615	-0.213136	-0.462341	0.282576	-0.356106	0	0	-0.19882	0.0644709	-0.154295	-0.633992	-0.625806	0.080101	1.90977	1.5708	0	0	0.172431	-0.21843	0.522992	0.505192	1.5708	0	0
95.07	-0.42518	1.46761	-1.25778	0.870862	-0.271644	0.926807	-0.252838	-0.124193	0.0414999	0.68546	-0.491473	0	0	0.12826	-0.211565	-0.475707	0.29711	-0.356373	0	0	-0.204484	0.0651924	-0.158639	-0.651474	-0.627711	0.071931	1.90519	1.5708	0	0	0.172298	-0.216078	0.522769	0.50744	1.5708	0	0
95.08	-0.407122	1.46583	-1.2784	0.875034	-0.278053	0.928469	-0.234961	-0.129129	0.0462457	0.724374	-0.515047	0	0	0.11324	-0.20255	-0.475304	0.286562	-0.357828	0	0	-0.209675	0.0654766	-0.163826	-0.669451	-0.632382	0.0629413	1.90443	1.5708	0	0	0.173436	-0.214361	0.525057	0.508479	1.5708	0	0
95.09	-0.390975	1.46383	-1.29734	0.878989	-0.284266	0.930029	-0.216403	-0.132701	0.0519426	0.762913	-0.534842	0	0	0.0988024	-0.193803	-0.471344	0.276618	-0.359572	0	0	-0.215175	0.0654288	-0.168286	-0.68911	-0.641468	0.0521752	1.90807	1.5708	0	0	0.174831	-0.213174	0.527488	0.509907	1.5708	0	0
95.1	-0.381352	1.46264	-1.31072	0.88257	-0.290233	0.931343	-0.195726	-0.134723	0.0584176	0.801073	-0.550479	0	0	0.0860031	-0.186166	-0.467125	0.267642	-0.36098	0	0	-0.219229	0.0649301	-0.172572	-0.703346	-0.639915	0.0441572	1.90237	1.5708	0	0	0.175365	-0.212781	0.528744	0.511748	1.5708	0	0
95.11	-0.374507	1.46227	-1.32087	0.88601	-0.295999	0.932489	-0.173709	-0.13492	0.0658949	0.837865	-0.565864	0	0	0.070162	-0.175326	-0.457334	0.245714	-0.367025	0	0	-0.2226	0.0643808	-0.176126	-0.720573	-0.641412	0.0334266	1.90053	1.5708	0	0	0.176724	-0.212444	0.531204	0.512962	1.5708	0	0
95.12	-0.367322	1.46008	-1.33063	0.889421	-0.301753	0.933643	-0.154599	-0.133594	0.0732962	0.872117	-0.579944	0	0	0.0567218	-0.167622	-0.450879	0.235074	-0.371665	0	0	-0.2277	0.0645601	-0.179606	-0.738457	-0.642038	0.0217731	1.89901	1.5708	0	0	0.178535	-0.212277	0.534518	0.514294	1.5708	0	0
95.13	-0.351536	1.45634	-1.34825	0.892746	-0.307379	0.934981	-0.138162	-0.13239	0.0794328	0.90419	-0.592823	0	0	0.0448198	-0.161601	-0.449012	0.23306	-0.374392	0	0	-0.234761	0.0640557	-0.183696	-0.755199	-0.641499	0.0108532	1.89652	1.5708	0	0	0.180626	-0.21249	0.536908	0.515624	1.5708	0	0
95.14	-0.35082	1.45406	-1.34994	0.896074	-0.312937	0.936	-0.120288	-0.12939	0.0840985	0.934956	-0.608024	0	0	0.0337368	-0.1556	-0.443226	0.226476	-0.378078	0	0	-0.239428	0.0652987	-0.188342	-0.772273	-0.640572	-0.000278627	1.89369	1.5708	0	0	0.182384	-0.212319	0.538927	0.516461	1.5708	0	0
95.15	-0.348192	1.45068	-1.3538	0.899212	-0.318235	0.937134	-0.104991	-0.125185	0.0907435	0.962068	-0.61946	0	0	0.0231522	-0.150763	-0.440076	0.223559	-0.381918	0	0	-0.245609	0.0662662	-0.192859	-0.787456	-0.639008	-0.0102413	1.89008	1.5708	0	0	0.184426	-0.212764	0.541562	0.51698	1.5708	0	0
95.16	-0.344283	1.44671	-1.35785	0.902291	-0.323474	0.938303	-0.0917909	-0.120354	0.0977474	0.986782	-0.622203	0	0	0.0139915	-0.147112	-0.439119	0.225006	-0.385001	0	0	-0.252185	0.0670477	-0.198562	-0.801409	-0.636653	-0.0194788	1.88554	1.5708	0	0	0.186204	-0.21412	0.546499	0.516982	1.5708	0	0
95.17	-0.348791	1.44357	-1.35316	0.905313	-0.328661	0.939243	-0.0785037	-0.114379	0.105462	1.00979	-0.612256	0	0	0.00521141	-0.143962	-0.437421	0.224208	-0.386798	0	0	-0.257245	0.0687678	-0.204355	-0.815098	-0.634308	-0.028615	1.88077	1.5708	0	0	0.187991	-0.215136	0.551223	0.516365	1.5708	0	0
95.18	-0.36259	1.44219	-1.33868	0.908249	-0.33387	0.939896	-0.0644078	-0.107345	0.112407	1.03026	-0.58976	0	0	-0.00269295	-0.141067	-0.433165	0.220019	-0.387669	0	0	-0.259538	0.0713042	-0.210353	-0.828745	-0.631839	-0.0371845	1.87557	1.5708	0	0	0.189431	-0.21508	0.551601	0.515587	1.5708	0	0
95.19	-0.372069	1.4404	-1.32893	0.910981	-0.338919	0.940656	-0.0515531	-0.100528	0.118962	1.04684	-0.564252	0	0	-0.00972949	-0.138832	-0.431661	0.219628	-0.387397	0	0	-0.262457	0.0729336	-0.216063	-0.840602	-0.629301	-0.0438972	1.86943	1.5708	0	0	0.190759	-0.215011	0.550639	0.513799	1.5708	0	0
95.2	-0.376455	1.43736	-1.32518	0.913468	-0.343711	0.94159	-0.0403364	-0.0936556	0.125799	1.05927	-0.539982	0	0	-0.0169065	-0.137347	-0.433967	0.223082	-0.385971	0	0	-0.267262	0.0737934	-0.220854	-0.850413	-0.626109	-0.0489751	1.86254	1.5708	0	0	0.192422	-0.215463	0.550725	0.511336	1.5708	0	0
95.21	-0.392352	1.43602	-1.31051	0.915845	-0.348375	0.942196	-0.0266703	-0.0856761	0.131284	1.06859	-0.519259	0	0	-0.0241114	-0.136	-0.433183	0.220606	-0.384368	0	0	-0.269832	0.0759131	-0.224806	-0.860662	-0.623141	-0.0545934	1.85539	1.5708	0	0	0.193739	-0.215505	0.550169	0.509024	1.5708	0	0
95.22	-0.404559	1.43521	-1.29983	0.918115	-0.352853	0.942843	-0.012781	-0.0788362	0.134356	1.07407	-0.50545	0	0	-0.0302753	-0.13412	-0.433476	0.219422	-0.382874	0	0	-0.272264	0.0773425	-0.22854	-0.86985	-0.620001	-0.0590885	1.84728	1.5708	0	0	0.195512	-0.215217	0.548515	0.505834	1.5708	0	0
95.23	-0.420897	1.43533	-1.28507	0.920304	-0.357245	0.943415	0.00168479	-0.0721298	0.135758	1.07666	-0.494636	0	0	-0.035071	-0.132736	-0.434255	0.218423	-0.38113	0	0	-0.273635	0.0791334	-0.232336	-0.878247	-0.61669	-0.0624709	1.83852	1.5708	0	0	0.197097	-0.214387	0.545112	0.502058	1.5708	0	0
95.24	-0.43362	1.43494	-1.27449	0.922369	-0.361525	0.944102	0.0144928	-0.0665455	0.136196	1.07557	-0.484101	0	0	-0.0393592	-0.131782	-0.43863	0.220801	-0.37908	0	0	-0.275691	0.080322	-0.235604	-0.885133	-0.613573	-0.0638479	1.82945	1.5708	0	0	0.198748	-0.213566	0.542527	0.497425	1.5708	0	0
95.25	-0.453524	1.43431	-1.25648	0.924372	-0.365867	0.944699	0.0255872	-0.0602927	0.135228	1.07088	-0.471527	0	0	-0.0447499	-0.131752	-0.44334	0.220767	-0.377059	0	0	-0.277108	0.0824806	-0.238854	-0.892022	-0.610732	-0.0645676	1.82008	1.5708	0	0	0.200113	-0.212572	0.541751	0.492062	1.5708	0	0
95.26	-0.480414	1.43348	-1.23091	0.92634	-0.370285	0.945184	0.0353474	-0.0536607	0.132586	1.06355	-0.456904	0	0	-0.0513568	-0.132231	-0.446136	0.217062	-0.375531	0	0	-0.277912	0.0859883	-0.242101	-0.899724	-0.607317	-0.0659139	1.81085	1.5708	0	0	0.201456	-0.210943	0.540925	0.486399	1.5708	0	0
95.27	-0.500647	1.42824	-1.21021	0.92835	-0.37452	0.946079	0.0383619	-0.0468461	0.127686	1.0523	-0.441011	0	0	-0.061771	-0.133707	-0.448064	0.214563	-0.374115	0	0	-0.283822	0.0906851	-0.246037	-0.90636	-0.603135	-0.0660592	1.80248	1.56689	0	0	0.203867	-0.209608	0.539618	0.481803	1.5708	0	0
95.28	-0.519429	1.42506	-1.19197	0.930215	-0.378748	0.946803	0.0431481	-0.0415623	0.123331	1.04037	-0.423903	0	0	-0.0706244	-0.133958	-0.449637	0.211129	-0.372623	0	0	-0.287399	0.0942213	-0.249107	-0.912505	-0.59995	-0.0639564	1.79378	1.55826	0	0	0.205952	-0.207999	0.537789	0.476972	1.5708	0	0
95.29	-0.53405	1.42302	-1.17875	0.931883	-0.382905	0.947472	0.0486041	-0.037815	0.11915	1.02778	-0.406207	0	0	-0.0775823	-0.13359	-0.45265	0.210234	-0.370628	0	0	-0.290048	0.0963571	-0.251726	-0.917728	-0.59695	-0.0609817	1.78444	1.54514	0	0	0.207607	-0.206602	0.536911	0.471798	1.5708	0	0
